<?xml version="1.0" encoding="utf-8"?>
<!-- Generator: Adobe Illustrator 26.3.1, SVG Export Plug-In . SVG Version: 6.00 Build 0)  -->
<svg version="1.1" id="Layer_1" xmlns="http://www.w3.org/2000/svg" xmlns:xlink="http://www.w3.org/1999/xlink" x="0px" y="0px"
	 viewBox="0 0 427.7 210.1" style="enable-background:new 0 0 427.7 210.1;" xml:space="preserve">
<style type="text/css">
	.st0{fill:#25D6A2;}
	.st1{enable-background:new    ;}
	.st2{fill:#515151;}
</style>
<g>
	<g>
		<g>
			<g>
				<path class="st0" d="M171.4,141.7c-2.1,3.6-4.9,6.1-8.3,7.7c-3.4,1.6-7.3,2.4-11.6,2.4c-4.9,0-9.2-0.9-12.9-2.9
					c-3.7-1.9-6.8-4.5-9.2-7.7c-2.4-3.3-4.2-7-5.5-11.2c-1.2-4.2-1.8-8.6-1.8-13.2c0-4.4,0.6-8.7,1.8-12.8c1.2-4.1,3.1-7.7,5.5-10.8
					c2.4-3.1,5.4-5.7,9.1-7.6s7.9-2.9,12.7-2.9c3.9,0,7.6,0.8,11.1,2.5s6.3,4.1,8.3,7.3h0.2v-33h18v90.6h-17.1v-8.4L171.4,141.7
					L171.4,141.7z M170.6,109.3c-0.5-2.5-1.4-4.7-2.6-6.6c-1.2-1.9-2.8-3.4-4.8-4.6c-1.9-1.2-4.4-1.8-7.4-1.8s-5.5,0.6-7.5,1.8
					s-3.7,2.8-4.9,4.7s-2.1,4.2-2.7,6.7c-0.6,2.5-0.8,5.1-0.8,7.8c0,2.5,0.3,5.1,0.9,7.6s1.5,4.8,2.9,6.8c1.3,2,3,3.6,4.9,4.8
					c2,1.2,4.4,1.8,7.2,1.8c3,0,5.4-0.6,7.4-1.8s3.6-2.8,4.8-4.8s2-4.2,2.5-6.8s0.8-5.2,0.8-7.9
					C171.4,114.4,171.1,111.8,170.6,109.3z"/>
				<path class="st0" d="M196.4,103c1.6-4.3,3.9-7.9,6.9-10.9s6.5-5.3,10.7-7c4.1-1.7,8.8-2.5,14-2.5s9.8,0.8,14,2.5s7.8,4,10.7,7
					c3,3,5.2,6.7,6.9,10.9s2.4,9,2.4,14.3c0,5.2-0.8,10-2.4,14.2s-3.9,7.9-6.9,10.9s-6.5,5.3-10.7,6.9s-8.9,2.4-14,2.4
					s-9.8-0.8-14-2.4c-4.1-1.6-7.7-3.9-10.7-6.9s-5.2-6.6-6.9-10.9c-1.6-4.2-2.4-9-2.4-14.2C194,112.1,194.8,107.3,196.4,103z
					 M212.8,125c0.5,2.5,1.4,4.7,2.6,6.7c1.2,2,2.9,3.6,4.9,4.8s4.6,1.8,7.6,1.8c3.1,0,5.6-0.6,7.7-1.8c2.1-1.2,3.7-2.8,4.9-4.8
					s2.1-4.2,2.6-6.7s0.8-5.1,0.8-7.7s-0.2-5.2-0.8-7.7c-0.5-2.5-1.4-4.8-2.6-6.7c-1.2-1.9-2.9-3.5-4.9-4.8
					c-2.1-1.2-4.6-1.8-7.7-1.8c-3.1,0-5.6,0.6-7.6,1.8c-2,1.2-3.7,2.8-4.9,4.8c-1.2,1.9-2.1,4.2-2.6,6.7s-0.8,5.1-0.8,7.7
					S212.3,122.5,212.8,125z"/>
				<path class="st0" d="M285.8,59.4V150h-18V59.4H285.8z"/>
				<path class="st0" d="M292.9,104.6c0.2-4.2,1.3-7.7,3.2-10.5c1.9-2.8,4.2-5,7.1-6.7s6.1-2.9,9.7-3.6s7.2-1.1,10.9-1.1
					c3.3,0,6.6,0.2,10,0.7s6.5,1.4,9.3,2.7c2.8,1.4,5.1,3.2,6.9,5.7s2.7,5.6,2.7,9.6v34.2c0,3,0.2,5.8,0.5,8.5s0.9,4.7,1.8,6.1
					h-18.3c-0.3-1-0.6-2.1-0.8-3.1c-0.2-1.1-0.4-2.1-0.4-3.2c-2.9,3-6.3,5-10.2,6.2c-3.9,1.2-7.9,1.8-11.9,1.8c-3.1,0-6-0.4-8.8-1.1
					c-2.7-0.8-5.1-1.9-7.1-3.6s-3.6-3.6-4.8-6.1s-1.7-5.4-1.7-8.8c0-3.7,0.6-6.8,2-9.2c1.3-2.4,3-4.3,5.1-5.8
					c2.1-1.4,4.4-2.5,7.1-3.2s5.4-1.3,8.1-1.7s5.4-0.8,8-1s5-0.6,7-1.1s3.6-1.2,4.8-2.2s1.7-2.4,1.6-4.2c0-1.9-0.3-3.5-1-4.6
					s-1.5-2-2.5-2.7c-1.1-0.6-2.3-1.1-3.7-1.3S324.6,95,323,95c-3.5,0-6.4,0.8-8.4,2.3s-3.2,4.1-3.5,7.6L292.9,104.6L292.9,104.6z
					 M334.5,117.9c-0.8,0.7-1.7,1.2-2.9,1.6c-1.1,0.4-2.4,0.7-3.7,0.9s-2.7,0.5-4.1,0.6c-1.4,0.2-2.9,0.4-4.3,0.6s-2.7,0.6-4,1
					s-2.5,1-3.4,1.7s-1.8,1.6-2.4,2.7s-0.9,2.5-0.9,4.2c0,1.6,0.3,3,0.9,4.1s1.4,2,2.4,2.6s2.2,1.1,3.6,1.3s2.8,0.4,4.2,0.4
					c3.5,0,6.3-0.6,8.2-1.8c2-1.2,3.4-2.6,4.3-4.2c0.9-1.6,1.5-3.3,1.7-5s0.3-3.1,0.3-4.1L334.5,117.9L334.5,117.9z"/>
				<path class="st0" d="M377.3,84.4v8.4h0.2c2.2-3.6,5-6.1,8.4-7.7s7.1-2.4,11.2-2.4c5.2,0,9.6,1,13.3,2.9s6.8,4.5,9.3,7.7
					s4.3,7,5.5,11.2c1.2,4.3,1.8,8.7,1.8,13.4c0,4.4-0.6,8.6-1.8,12.7c-1.2,4.1-3,7.7-5.4,10.8s-5.4,5.6-9,7.5s-7.8,2.8-12.6,2.8
					c-4.1,0-7.8-0.8-11.2-2.5s-6.2-4.1-8.4-7.3h-0.2V173h-18V84.4H377.3z M400.7,136.5c2-1.2,3.6-2.7,4.8-4.6
					c1.2-1.9,2.1-4.1,2.6-6.7c0.5-2.5,0.8-5.1,0.8-7.7s-0.3-5.2-0.8-7.7s-1.5-4.8-2.7-6.8c-1.3-2-2.9-3.6-4.9-4.8
					c-2-1.2-4.4-1.8-7.3-1.8c-3,0-5.4,0.6-7.4,1.8c-2,1.2-3.6,2.8-4.8,4.8c-1.2,1.9-2.1,4.2-2.6,6.7s-0.8,5.2-0.8,7.9
					c0,2.6,0.3,5.2,0.8,7.7s1.4,4.8,2.7,6.7c1.2,1.9,2.9,3.4,4.9,4.6c2,1.2,4.5,1.8,7.4,1.8C396.3,138.3,398.7,137.7,400.7,136.5z"
					/>
			</g>
		</g>
		<path class="st0" d="M72.4,153.2c-4,0-7.8-1.6-10.7-4.4L4.5,92.3C1.6,89.4,0,85.7,0,81.6S1.6,73.8,4.5,71L72,4.4
			C74.9,1.6,78.7,0,82.8,0s7.9,1.6,10.8,4.4l28.6,28.2c2.9,2.8,4.5,6.6,4.5,10.6s-1.6,7.8-4.5,10.7L89.3,86.4c-1,1-1.5,2.3-1.5,3.7
			v48.1c0,6.2-3.6,11.5-9.4,13.9C76.4,152.8,74.4,153.2,72.4,153.2z M82.8,9.9c-1.4,0-2.8,0.5-3.8,1.5L11.5,78c-1,1-1.5,2.3-1.5,3.7
			c0,1.4,0.5,2.7,1.5,3.7l57.3,56.4c1,1,2.3,1.5,3.7,1.5c0.9,0,1.7-0.2,2.1-0.4c0.8-0.3,3.2-1.6,3.2-4.8V43.5c0-2.7,2.2-4.9,5-4.9
			s5,2.2,5,4.9V74l27.4-27c1-1,1.5-2.3,1.5-3.7s-0.6-2.7-1.5-3.7L86.5,11.4C85.5,10.4,84.2,9.9,82.8,9.9z"/>
	</g>
	<g class="st1">
		<path class="st2" d="M131.7,179.8c3,0,5.6,1.1,7.6,3.2c2.1,2.1,3.1,4.7,3.1,7.9s-1,5.7-3.1,7.9c-2,2.1-4.5,3.2-7.6,3.2h-8.8v-22.1
			H131.7z M131.7,197.7c1.9,0,3.5-0.6,4.7-1.9c1.2-1.3,1.8-2.9,1.8-5c0-2.1-0.6-3.7-1.8-5c-1.2-1.3-2.7-1.9-4.7-1.9h-4.4v13.8H131.7
			z"/>
		<path class="st2" d="M148.6,195.6c0.5,2,2,3,4.4,3c1.5,0,2.7-0.5,3.5-1.6l3.3,1.9c-1.5,2.2-3.8,3.4-6.9,3.4
			c-2.6,0-4.7-0.8-6.3-2.4c-1.6-1.6-2.4-3.6-2.4-6c0-2.4,0.8-4.4,2.3-5.9c1.5-1.6,3.6-2.4,6-2.4c2.3,0,4.2,0.8,5.7,2.4
			c1.5,1.6,2.3,3.6,2.3,5.9c0,0.5-0.1,1.1-0.2,1.7H148.6z M156.6,192.5c-0.5-2.1-2.1-3.2-3.9-3.2c-2.2,0-3.7,1.2-4.1,3.2H156.6z"/>
		<path class="st2" d="M175.5,186.1h4v15c0,2.4-0.8,4.3-2.4,5.6s-3.5,1.9-5.8,1.9c-3.4,0-6.1-1.3-7.5-3.8l3.5-2
			c0.8,1.5,2.2,2.2,4.1,2.2c2.6,0,4.1-1.4,4.1-3.9v-1.7c-1.2,1.6-2.9,2.4-5,2.4c-2.2,0-4.1-0.8-5.6-2.3c-1.5-1.6-2.2-3.5-2.2-5.7
			c0-2.2,0.8-4.1,2.3-5.7c1.5-1.6,3.4-2.4,5.6-2.4c2.2,0,3.9,0.8,5,2.4V186.1z M165.7,179.8h3.6c0,1.1,0.5,1.6,1.6,1.6
			c1.1,0,1.6-0.5,1.6-1.6h3.6c0,2.9-1.9,4.6-5.3,4.6C167.6,184.3,165.7,182.7,165.7,179.8z M174.2,190.6c-0.8-0.8-1.9-1.2-3.2-1.2
			c-1.3,0-2.3,0.4-3.2,1.2c-0.8,0.8-1.2,1.8-1.2,3.1c0,2.5,1.9,4.3,4.4,4.3c2.6,0,4.4-1.8,4.4-4.3
			C175.5,192.5,175.1,191.4,174.2,190.6z"/>
		<path class="st2" d="M182.7,181.7c0-1.4,1.1-2.5,2.5-2.5c1.4,0,2.5,1.2,2.5,2.5c0,1.4-1.1,2.5-2.5,2.5
			C183.8,184.2,182.7,183,182.7,181.7z M183.2,201.8v-15.8h4.1v15.8H183.2z"/>
		<path class="st2" d="M198.3,202.1v1.2c1.2,0.3,2.2,1.1,2.2,2.5c0,2.2-2.3,3.2-6.9,2.9v-2.9c2.3,0.2,3.4-0.1,3.4-0.6
			c0-0.4-0.7-0.7-2-0.8v-2.2c-2.5-0.3-4.3-1.5-5.3-3.7l3.5-2c0.5,1.4,1.5,2.1,3.1,2.1c1.5,0,2.2-0.4,2.2-1.4c0-0.9-1.3-1.3-2.9-1.7
			c-2.3-0.6-5.3-1.6-5.3-4.9c0-1.5,0.6-2.8,1.7-3.7c1.2-0.9,2.6-1.4,4.3-1.4c2.6,0,4.8,1.2,6,3.3l-3.5,1.9c-0.5-1.1-1.4-1.6-2.5-1.6
			c-1,0-1.8,0.5-1.8,1.3c0,0.9,1.3,1.3,2.9,1.7c2.3,0.5,5.3,1.6,5.3,5C202.7,199.9,201,201.6,198.3,202.1z"/>
		<path class="st2" d="M213.9,190h-3.6v6.6c0,1.7,1.2,1.7,3.6,1.6v3.7c-5.6,0.6-7.6-1-7.6-5.3V190h-2.7v-3.9h2.7v-3.2l4.1-1.2v4.4
			h3.6V190z"/>
		<path class="st2" d="M216.3,181.7c0-1.4,1.1-2.5,2.5-2.5c1.4,0,2.5,1.2,2.5,2.5c0,1.4-1.1,2.5-2.5,2.5
			C217.4,184.2,216.3,183,216.3,181.7z M216.8,201.8v-15.8h4.1v15.8H216.8z"/>
		<path class="st2" d="M228.6,188.8c0.8-2,2.7-3,4.8-3v4.5c-1.2-0.2-2.4,0.1-3.3,0.8c-1,0.7-1.5,1.7-1.5,3.2v7.5h-4.1v-15.8h4.1
			V188.8z"/>
		<path class="st2" d="M238.9,197.5l-2.4,8.8h-3.3l1.3-8.8H238.9z"/>
		<path class="st2" d="M262.2,179.8h4.1v22.1h-4.1V200c-1.2,1.5-2.9,2.3-5.1,2.3c-2.1,0-3.9-0.8-5.5-2.4c-1.5-1.6-2.2-3.6-2.2-5.9
			s0.8-4.3,2.2-5.9c1.5-1.6,3.3-2.4,5.5-2.4c2.2,0,3.9,0.8,5.1,2.3V179.8z M257.8,198.4c1.3,0,2.3-0.4,3.1-1.2
			c0.8-0.9,1.2-1.9,1.2-3.2s-0.4-2.4-1.2-3.2c-0.8-0.9-1.9-1.3-3.1-1.3c-1.3,0-2.3,0.4-3.2,1.3c-0.8,0.8-1.2,1.9-1.2,3.2
			s0.4,2.4,1.2,3.2C255.5,198,256.6,198.4,257.8,198.4z"/>
		<path class="st2" d="M273.4,195.6c0.5,2,2,3,4.4,3c1.5,0,2.7-0.5,3.5-1.6l3.3,1.9c-1.5,2.2-3.8,3.4-6.9,3.4
			c-2.6,0-4.7-0.8-6.3-2.4c-1.6-1.6-2.4-3.6-2.4-6c0-2.4,0.8-4.4,2.3-5.9c1.5-1.6,3.6-2.4,6-2.4c2.3,0,4.2,0.8,5.7,2.4
			c1.5,1.6,2.3,3.6,2.3,5.9c0,0.5-0.1,1.1-0.2,1.7H273.4z M281.4,192.5c-0.5-2.1-2.1-3.2-3.9-3.2c-2.2,0-3.7,1.2-4.1,3.2H281.4z"/>
		<path class="st2" d="M300.3,186.1h4v15c0,2.4-0.8,4.3-2.4,5.6s-3.5,1.9-5.8,1.9c-3.4,0-6.1-1.3-7.5-3.8l3.5-2
			c0.8,1.5,2.2,2.2,4.1,2.2c2.6,0,4.1-1.4,4.1-3.9v-1.7c-1.2,1.6-2.9,2.4-5,2.4c-2.2,0-4.1-0.8-5.6-2.3c-1.5-1.6-2.2-3.5-2.2-5.7
			c0-2.2,0.8-4.1,2.3-5.7c1.5-1.6,3.4-2.4,5.6-2.4c2.2,0,3.8,0.8,5,2.4V186.1z M290.4,179.8h3.6c0,1.1,0.5,1.6,1.6,1.6
			c1.1,0,1.6-0.5,1.6-1.6h3.6c0,2.9-1.9,4.6-5.3,4.6C292.4,184.3,290.4,182.7,290.4,179.8z M299,190.6c-0.8-0.8-1.9-1.2-3.2-1.2
			c-1.3,0-2.3,0.4-3.2,1.2c-0.8,0.8-1.2,1.8-1.2,3.1c0,2.5,1.9,4.3,4.4,4.3c2.6,0,4.4-1.8,4.4-4.3
			C300.3,192.5,299.8,191.4,299,190.6z"/>
		<path class="st2" d="M311.4,195.6c0.5,2,2,3,4.4,3c1.5,0,2.7-0.5,3.5-1.6l3.3,1.9c-1.5,2.2-3.8,3.4-6.9,3.4
			c-2.6,0-4.7-0.8-6.3-2.4c-1.6-1.6-2.4-3.6-2.4-6c0-2.4,0.8-4.4,2.3-5.9c1.5-1.6,3.6-2.4,6-2.4c2.3,0,4.2,0.8,5.7,2.4
			c1.5,1.6,2.3,3.6,2.3,5.9c0,0.5-0.1,1.1-0.2,1.7H311.4z M319.3,192.5c-0.5-2.1-2.1-3.2-3.9-3.2c-2.2,0-3.7,1.2-4.1,3.2H319.3z"/>
		<path class="st2" d="M330.3,188.8c0.8-2,2.7-3,4.8-3v4.5c-1.2-0.2-2.4,0.1-3.3,0.8c-1,0.7-1.5,1.7-1.5,3.2v7.5h-4.1v-15.8h4.1
			V188.8z"/>
		<path class="st2" d="M337.5,201.8v-23h4.1v23H337.5z"/>
		<path class="st2" d="M348.7,195.6c0.5,2,2,3,4.4,3c1.5,0,2.7-0.5,3.5-1.6l3.3,1.9c-1.5,2.2-3.8,3.4-6.9,3.4
			c-2.6,0-4.7-0.8-6.3-2.4c-1.6-1.6-2.4-3.6-2.4-6c0-2.4,0.8-4.4,2.3-5.9c1.5-1.6,3.6-2.4,6-2.4c2.3,0,4.2,0.8,5.7,2.4
			c1.5,1.6,2.3,3.6,2.3,5.9c0,0.5-0.1,1.1-0.2,1.7H348.7z M356.7,192.5c-0.5-2.1-2.1-3.2-3.9-3.2c-2.2,0-3.7,1.2-4.1,3.2H356.7z"/>
		<path class="st2" d="M376.6,187.4c1.1,1.2,1.7,2.7,1.7,4.8v9.7h-4.1v-9.2c0-2.1-1.2-3.2-3.1-3.2c-2.1,0-3.5,1.3-3.5,3.9v8.5h-4.1
			v-15.8h4.1v1.8c1-1.5,2.6-2.2,4.7-2.2C374.1,185.6,375.5,186.2,376.6,187.4z"/>
		<path class="st2" d="M393.8,179.8h4.1v22.1h-4.1V200c-1.2,1.5-2.9,2.3-5.1,2.3c-2.1,0-3.9-0.8-5.5-2.4c-1.5-1.6-2.2-3.6-2.2-5.9
			s0.8-4.3,2.2-5.9c1.5-1.6,3.3-2.4,5.5-2.4c2.2,0,3.9,0.8,5.1,2.3V179.8z M389.4,198.4c1.3,0,2.3-0.4,3.1-1.2
			c0.8-0.9,1.2-1.9,1.2-3.2s-0.4-2.4-1.2-3.2c-0.8-0.9-1.9-1.3-3.1-1.3s-2.3,0.4-3.2,1.3c-0.8,0.8-1.2,1.9-1.2,3.2s0.4,2.4,1.2,3.2
			C387.1,198,388.2,198.4,389.4,198.4z"/>
		<path class="st2" d="M401.1,181.7c0-1.4,1.1-2.5,2.5-2.5c1.4,0,2.5,1.2,2.5,2.5c0,1.4-1.1,2.5-2.5,2.5
			C402.2,184.2,401.1,183,401.1,181.7z M401.6,201.8v-15.8h4.1v15.8H401.6z"/>
		<path class="st2" d="M413.4,188.8c0.8-2,2.7-3,4.8-3v4.5c-1.2-0.2-2.4,0.1-3.3,0.8c-1,0.7-1.5,1.7-1.5,3.2v7.5h-4.1v-15.8h4.1
			V188.8z"/>
		<path class="st2" d="M418.8,201.5c-1-1-1-2.7,0-3.8c1-1,2.7-1,3.8,0c1,1,1,2.7,0,3.8C421.6,202.5,419.9,202.5,418.8,201.5z"/>
	</g>
</g>
</svg>
